<svg xmlns="http://www.w3.org/2000/svg" xmlns:xlink="http://www.w3.org/1999/xlink" xml:space="preserve" width="1200" height="600" viewBox="0 0 317.5 158.75"><defs><clipPath id="c" clipPathUnits="userSpaceOnUse"><path stroke-width=".2646" d="M182 65c-.9307 7.8794-2.006 14.8617-2 23 .037 50.1204 20.351 93.802 53 110 32.649-16.198 52.9628-59.8796 53-110 .006-8.1383-1.0693-15.1206-2-23-21.8988 9.9822-40.682 5.573-51 0-10.318 5.573-29.1012 9.9822-51 0z"/></clipPath><clipPath id="a" clipPathUnits="userSpaceOnUse"><path stroke-width=".2646" d="M48.1542 17.198c-.2463 2.0847-.5308 3.932-.5292 6.0853.0098 13.261 5.3845 24.8185 14.023 29.1042 8.6383-4.2857 14.013-15.8431 14.0228-29.1042.0016-2.1532-.2829-4.0006-.5291-6.0854-5.794 2.6411-10.7638 1.4746-13.4938 0-2.73 1.4746-7.6997 2.6411-13.4937 0z"/></clipPath></defs><path fill="#d7111b" d="M0 0h317.5v158.75H0Z"/><path fill="#369d27" d="M49.3359 36.5244c-1.9066 2.5887-3.0338 5.7869-3.0338 9.2485 0 8.6214 6.989 15.6104 15.6104 15.6104 8.6214 0 15.6104-6.989 15.6104-15.6104 0-3.4628-1.1272-6.6619-3.0353-9.2511a12.9916 12.9916 0 0 1 .3895 3.1657c0 7.1601-5.8045 12.9646-12.9647 12.9646-7.16 0-12.9645-5.8045-12.9645-12.9646 0-1.0911.1342-2.1507.388-3.1631z"/><path fill="#ffec00" d="M46.6273 14.5527v.002c-1.4028.0274-4.4406.592-5.2408 4.8622 0 0-2.6489 1.9448-5.0007 5.9719 0 0-.274-.5486.525-1.5096 0 0 2.5117-2.6766.7535-8.2596 0 0-4.1667 4.6663-1.8719 8.716 0 0 .4106.4585.4333 1.2365 0 0-2.4206 3.9363-3.037 8.0548 0 0-.5243-1.1895-.3417-1.9444 0 0 1.1411-2.9746.73-5.0338 0 0-.594-2.5634-1.7586-3.9592 0 0-3.79 4.7126-.365 8.328 0 0 .2734.2071.73 1.4197l.4567 1.2131.3201 1.0298s-.7541 4.8504-.2517 7.6648c0 0-1.1873-1.5342-1.2102-2.7012 0 0 .8234-5.1702-3.0586-8.5795 0 0-2.171 4.5995.158 7.2767 0 0 1.028 1.1885 1.7587 1.8976 0 0 2.0326 2.1518 2.5121 3.456 0 0 .6391 4.4167 1.2785 5.4921 0 0-1.8026-.8005-2.1451-3.569 0 0-.3325-3.307-4.2942-5.4922 0 0-1.4044 5.2855 3.4022 7.8481 0 0 2.947 1.4864 3.5407 2.6993 0 0 2.1915 4.7138 3.3104 5.9036 0 0-1.0502-.16-2.032-1.258 0 0-2.329-5.7658-6.9643-6.2234 0 0-.0922 5.812 6.3241 7.3449 0 0 2.0792.1818 3.084.708 0 0 2.4874 3.1814 4.6338 4.9206 0 0-2.398-.0231-2.9688-1.2131 0 0-1.804-3.8451-7.6495-3.7076 0 0 .9374 5.1963 7.6963 5.2191 0 0 3.0137-.1615 3.7671.3647 0 0 3.7446 2.8596 6.0509 3.729 0 0-1.4375.1832-2.4653-.2516 0 0-5.4592-3.8193-9.5232-1.1194 0 0 2.0342 4.1405 9.5232 2.2643 0 0 3.1266-.5255 3.7203-.2965 0 0 4.4529 1.7149 5.846 1.9211 0 0-1.4381.892-3.7672-.115 0 0-3.0816-1.7607-6.6208 1.0765 0 0 2.8986 3.6842 8.6527.6183 0 0 2.284-1.4429 3.3572-1.26l1.62.275s-3.0352 3.1108-5.8438 4.7354c0 0-.617.253-.0918.4818 0 0 2.2849 1.0533 4.2258 1.1448 0 0 2.7566-2.7814 3.3768-6.009.6202 3.2276 3.3768 6.009 3.3768 6.009 1.941-.0915 4.2258-1.1448 4.2258-1.1448.5251-.2288-.0918-.4818-.0918-.4818-2.8086-1.6246-5.8439-4.7354-5.8439-4.7354l1.62-.275c1.0733-.1829 3.3573 1.26 3.3573 1.26 5.7541 3.066 8.6527-.6183 8.6527-.6183-3.5392-2.8372-6.6208-1.0766-6.6208-1.0766-2.329 1.0071-3.7671.1151-3.7671.1151 1.393-.2062 5.8459-1.921 5.8459-1.921.5937-.2291 3.7202.2964 3.7202.2964 7.489 1.8762 9.5233-2.2643 9.5233-2.2643-4.064-2.6999-9.5233 1.1194-9.5233 1.1194-1.0277.4348-2.4652.2516-2.4652.2516 2.3062-.8694 6.0509-3.729 6.0509-3.729.7534-.5262 3.767-.3647 3.767-.3647 6.759-.0228 7.6963-5.219 7.6963-5.219-5.8454-.1376-7.6494 3.7075-7.6494 3.7075-.5708 1.19-2.9688 1.2131-2.9688 1.2131 2.1464-1.7392 4.6338-4.9207 4.6338-4.9207 1.0048-.5262 3.084-.708 3.084-.708 6.4163-1.533 6.324-7.3449 6.324-7.3449-4.6352.4576-6.9643 6.2235-6.9643 6.2235-.9817 1.098-2.0319 1.258-2.0319 1.258 1.1188-1.1898 3.3104-5.9037 3.3104-5.9037.5937-1.2128 3.5407-2.6992 3.5407-2.6992 4.8066-2.5626 3.4022-7.8481 3.4022-7.8481-3.9617 2.1852-4.2942 5.492-4.2942 5.492-.3425 2.7686-2.145 3.5692-2.145 3.5692.6393-1.0755 1.2784-5.4921 1.2784-5.4921.4795-1.3042 2.512-3.456 2.512-3.456.7307-.7092 1.7587-1.8977 1.7587-1.8977 2.329-2.6771.1581-7.2766.1581-7.2766-3.882 3.4093-3.0586 8.5794-3.0586 8.5794-.023 1.1671-1.2102 2.7012-1.2102 2.7012.5024-2.8143-.2517-7.6647-.2517-7.6647l.32-1.0298.4568-1.2131c.4566-1.2126.73-1.4198.73-1.4198 3.425-3.6154-.365-8.328-.365-8.328-1.1646 1.3959-1.7586 3.9592-1.7586 3.9592-.4111 2.0593.73 5.0338.73 5.0338.1826.755-.3416 1.9445-.3416 1.9445-.6165-4.1186-3.0371-8.0548-3.0371-8.0548.0227-.778.4333-1.2365.4333-1.2365 2.2948-4.0498-1.8719-8.716-1.8719-8.716-1.7582 5.583.7534 8.2596.7534 8.2596.7991.961.5251 1.5095.5251 1.5095-2.3518-4.027-5.0007-5.9719-5.0007-5.9719-.8002-4.27-3.838-4.8348-5.2408-4.8621v-.002a5.567 5.567 0 0 0-.2577.002c-.287.0072-.4606.0351-.4606.0351.3766 5.0568 5.6175 5.6052 5.6175 5.6052 2.9227 2.5627 4.4757 5.4902 4.4757 5.4902-.6851-.2745-1.0501-.6865-1.0501-.6865-2.8429-4.6219-7.6046-3.8441-7.6046-3.8441 1.9296 5.2284 7.6729 5.1956 7.6729 5.1956 1.587.0801 2.0104 1.1663 2.0104 1.1663 1.3244 2.1967 2.2369 6.3386 2.2369 6.3386-.3653-.3662-.8452-.9498-.8452-.9498-2.2149-6.052-6.896-5.8237-6.896-5.8237 1.4385 6.0177 6.1191 6.3834 6.1191 6.3834.8679.1831 1.8055 1.4647 1.8055 1.4647.5252 3.5923.2967 6.5219.2967 6.5219-.0229-.2289-.3884-.8933-.3884-.8933-.3425-.6406-.525-2.036-.525-2.036-.822-4.233-4.7275-4.9656-4.7275-4.9656-.765 5.4685 4.909 7.5165 4.909 7.5165 1.5985 1.419-.6617 7.6531-.6617 7.6531-.0457-.2288-.1367-1.0746-.1367-1.0746.4909-6.5555-4.499-7.4815-4.499-7.4815-.0343 3.1347.4801 4.2088.4801 4.2088.491 1.4188 2.9903 3.2512 2.9903 3.2512.6165.5949.8237 1.6246.8237 1.6246-.3882 2.631-4.0658 7.6414-4.0658 7.6414-.0457-1.1211.367-1.8762.367-1.8762 2.626-4.7593-.6637-7.8715-.6637-7.8715-3.1967 4.2331-.4098 7.4834-.4098 7.4834.4338.8008.2498 2.8592.2498 2.8592-1.0505 1.5791-4.7255 4.6437-4.7255 4.6437l.0215-.1366c.4567-1.3958.892-1.8996.892-1.8996 3.0598-3.5923.0683-7.8695.0683-7.8695-2.8314 3.192-1.622 7.0699-1.622 7.0699.7763 1.842-.0683 3.1342-.0683 3.1342-1.4043 1.6699-5.7776 3.5457-5.7776 3.5457.7536-.8923 1.6669-1.7378 1.6669-1.7378 3.288-2.62 1.622-7.3215 1.622-7.3215-4.2815 2.414-3.2206 7.4132-3.2206 7.4132-.137 1.8076-1.4151 2.2643-1.4151 2.2643-1.8724.8233-4.5674 1.3964-4.5674 1.3964.274-.5034.7534-.663.7534-.663 4.6583-2.6313 3.289-6.7053 3.289-6.7053-4.407 1.6934-4.2923 6.635-4.2923 6.635-.0457 1.0068-.89 1.0532-.89 1.0532l-1.4854.2067c1.8379-1.144 1.6903-2.358 1.6903-2.358-.2055-3.009-4.0872-2.036-4.0872-2.036s-3.8817-.973-4.0872 2.036c0 0-.1476 1.214 1.6903 2.358l-1.4854-.2067s-.8443-.0464-.89-1.0532c0 0 .1146-4.9416-4.2922-6.635 0 0-1.3694 4.074 3.2889 6.7052 0 0 .4793.1597.7534.6631 0 0-2.695-.5731-4.5674-1.3964 0 0-1.2782-.4567-1.4151-2.2643 0 0 1.0609-4.9992-3.2206-7.4132 0 0-1.6661 4.7015 1.622 7.3215 0 0 .9133.8455 1.667 1.7378 0 0-4.3734-1.8758-5.7777-3.5457 0 0-.8446-1.2922-.0683-3.1342 0 0 1.2094-3.8779-1.622-7.07 0 0-2.9915 4.2773.0683 7.8696 0 0 .4353.5038.892 1.8996l.0215.1366s-3.675-3.0646-4.7255-4.6437c0 0-.184-2.0584.2498-2.8592 0 0 2.787-3.2503-.4099-7.4834 0 0-3.2896 3.1122-.6636 7.8715 0 0 .4127.755.367 1.8762 0 0-3.6776-5.0104-4.0658-7.6414 0 0 .2072-1.0297.8237-1.6246 0 0 2.4992-1.8324 2.9903-3.2512 0 0 .5144-1.0741.4801-4.2088 0 0-4.9899.926-4.499 7.4815 0 0-.091.8458-.1367 1.0746 0 0-2.2602-6.2342-.6617-7.653 0 0 5.674-2.0481 4.909-7.5166 0 0-3.9054.7325-4.7274 4.9655 0 0-.1826 1.3955-.5251 2.0361 0 0-.3655.6644-.3884.8933 0 0-.2285-2.9296.2967-6.5219 0 0 .9376-1.2816 1.8054-1.4647 0 0 4.6807-.3657 6.1192-6.3834 0 0-4.6811-.2282-6.896 5.8237 0 0-.4799.5836-.8452.9498 0 0 .9125-4.142 2.2369-6.3386 0 0 .4234-1.0862 2.0104-1.1663 0 0 5.7433.0328 7.6729-5.1956 0 0-4.7617-.7778-7.6046 3.844 0 0-.365.412-1.05.6866 0 0 1.5529-2.9275 4.4756-5.4902 0 0 5.241-.5484 5.6175-5.6052 0 0-.1736-.0279-.4606-.0351a5.6323 5.6323 0 0 0-.2577-.002zm15.2852 50.4666c.6247.0004 1.132.2056 1.132.4583s-.5072.458-1.132.4583c-.6248-.0004-1.132-.2056-1.132-.4583s.5073-.4579 1.132-.4583zm0 2.118c.5197.0005.9408.2057.9408.4584 0 .2526-.421.4578-.9408.4583-.5197-.0005-.9408-.2057-.9408-.4583 0-.2527.421-.4579.9408-.4584zm0 1.5876c.4672.0007.8452.2573.8452.5734 0 .3156-.378.5707-.8452.5714-.4672-.0007-.8452-.2558-.8452-.5714 0-.3161.378-.5727.8452-.5734zm-2.7853-3.1108c.0026-.0004.2752-.0446.2752.5032 0 0-.059.6984.2264 1.2131 0 0 .434.6164.4567.868 0 0-.5917.0228-1.0715-1.3731 0 0-.2972-1.279.1132-1.2112zm5.6838 1.2112c-.4798 1.396-1.0715 1.373-1.0715 1.373.0227-.2515.4567-.8679.4567-.8679.2853-.5147.2264-1.213.2264-1.213 0-.548.2726-.5037.2752-.5033.4104-.0678.1132 1.2112.1132 1.2112z"/><path fill="#ffec00" d="M48.4187 17.198c-.2462 2.0847-.5307 3.932-.5291 6.0853.0098 13.261 5.3845 24.8185 14.0229 29.1042 8.6384-4.2857 14.013-15.8431 14.023-29.1042.0015-2.1532-.283-4.0006-.5293-6.0854-5.794 2.6411-10.7637 1.4746-13.4937 0-2.73 1.4746-7.6997 2.6411-13.4938 0z"/><g clip-path="url(#a)" transform="translate(.2646)"><path id="b" fill="none" stroke="#fff" stroke-dasharray="none" stroke-linecap="butt" stroke-linejoin="miter" stroke-opacity="1" stroke-width=".3969" d="M49.0997 16.2719v37.0416"/><use xlink:href="#b" transform="translate(1.6731)"/><use xlink:href="#b" transform="translate(3.3462)"/><use xlink:href="#b" transform="translate(5.0193)"/><use xlink:href="#b" transform="translate(6.6924)"/><use xlink:href="#b" transform="translate(8.3655)"/><use xlink:href="#b" transform="translate(10.0386)"/><use xlink:href="#b" transform="translate(11.7117)"/><use xlink:href="#b" transform="translate(13.3848)"/><use xlink:href="#b" transform="translate(15.058)"/><use xlink:href="#b" transform="translate(16.731)"/><use xlink:href="#b" transform="translate(18.4041)"/><use xlink:href="#b" transform="translate(20.0772)"/><use xlink:href="#b" transform="translate(21.7503)"/><use xlink:href="#b" transform="translate(23.4234)"/><use xlink:href="#b" transform="translate(25.0965)"/></g><path fill="none" stroke="#fff" stroke-width="26" d="m174 164 126-74" clip-path="url(#c)" transform="translate(.2646) scale(.26458)"/><path fill="#ffec00" d="M70.1454 26.723c-.622.4585-1.2555.9095-1.8105 1.4497-.1717.167-.3662.3257-.4725.5443-.0426.0877-.023.1872-.0062.2783.026.1407.0213.2907.0767.4224.1127.2673.3927.4089.6531.4931.2297.0743.4518.1824.6899.2206.1078.0174.1969.159.0538.2113-.686.2512-1.2262.8338-1.4815 1.5261-.1004.2723-.1109.5658-.162.8502-.0241.134-.1396.2503-.2794.244-.1777.0124-.2906-.1594-.3373-.3152-.0457-.1524-.0326-.3127-.0449-.4688-.0534-.105-.1.1277-.1305.1734-.1125.2973-.1005.6556.0906.9167.1314.1795.3418.3242.569.32.2341-.0044.4082-.1874.5306-.3699.1248-.186.159-.4163.1847-.6347.0256-.217.0189-.4374.0826-.6502.151-.5038.544-.8885.9776-1.1667.159-.102.297-.2384.3987-.3974.1147-.053.2492-.0178.3648.0138.4104.112.8403.1957 1.2659.1425.2185-.0274.449-.1308.5437-.3474.136-.3107.0349-.6632-.1036-.9539a3.1244 3.1244 0 0 0-.2241-.3894l-.2345.5816c.1278.1162.2739.2477.3011.427.0221.1454-.1297.2091-.2452.2336-.3825.0811-.781-.0053-1.137-.1483-.6035-.2424-1.224-.4386-1.8459-.6273-.103-.0313-.2643-.1457-.1683-.2584.0806-.0945.1833-.1672.2783-.2467l1.5546-1.3012c.0201-.2577.038-.5173.0677-.7732zm-2.037.3365c-.0036.153-.0086.3073-.0113.4594l.4535.046.0113-.494-.4535-.0114zm1.939 1.3087-.0451.5054c.1389.0419.2781.083.4196.115a11.74 11.74 0 0 1 .079-.5283 12.9879 12.9879 0 0 0-.4535-.0921zm-4.369 1.7783c-.3127-.0022-.5986.2-.7444.4716-.1377.2565-.2344.5396-.267.8297-.023.203-.0103.4561.1787.577.1545.099.3434.0512.515.0482.16-.0028.3525-.0426.4796.0662.1013.0867-.0043.2148-.0736.2838-.172.1715-.3853.2946-.5995.4034-.3546.18-.744.3364-1.1495.3063-.271-.02-.5094-.2-.6332-.442-.0709-.1385-.113-.2902-.1396-.4432-.0512.3953-.047.8128.1074 1.1865.1024.2476.3333.4355.5997.4684.381.047.7566-.0903 1.0934-.2558.2616-.1285.5222-.2659.7401-.4656.2506-.2298.431-.5675.3888-.9156-.027-.2225-.0967-.4536-.2531-.62-.101-.1074-.2544-.1215-.398-.1023-.1498.0201-.3639.0343-.4396-.121-.0735-.1507-.0046-.3236.056-.4665.0584-.1374.1995-.25.3598-.2115.17.0408.2674.2584.454.2305.151-.0226.2108-.1951.2358-.3291.033-.177-.062-.3628-.2276-.4372-.0887-.0398-.1859-.063-.2832-.0618zm-4.8394 1.9192-.0343.5277-.5669-.0114c.008.2142.0144.4298.0231.6432l.6346.0456.0682-.4936.4878.0233.0565-.7006-.669-.0342zm1.0014 1.3516c-.3137.004-.5916.2088-.7572.4731-.1492.2382-.2245.5567-.089.818.1045.2012.289.3854.5268.401.2965.0193.5458-.1901.7216-.4095.096-.1196.1782-.2498.2523-.384.1172.0185.2074.1379.1734.2583-.0555.1966-.1983.3563-.3486.486-.4196.362-.8755.7023-1.4005.8876-.2891.1021-.6454.1574-.9067-.0336-.1593-.1164-.2856-.2716-.4208-.4146-.1445-.1527-.2905-.304-.4311-.4603-.0755.157-.1516.3137-.2267.4707.2322.1868.4569.4092.5629.6963.0641.1738.0132.3783-.126.5013-.2445.2161-.5744.2888-.8846.351-.145-.0028-.0202.1812.0152.2558.0688.1448.2077.3059.3815.265.3438-.0807.6912-.2359.9177-.5183.1213-.1511.1815-.3472.1766-.5407.283.1334.6126.1105.908.039.4587-.1113.895-.3206 1.273-.602.355-.2643.6953-.5777.8883-.9858.1225-.259.127-.5764-.0213-.8279-.1176-.1995-.2998-.353-.4876-.4819-.2049-.1407-.4451-.2482-.6972-.2445zm3.7385.1984-.1133.4474c-.121-.038-.2418-.0766-.3627-.1144l-.1811.4132.476.2983.1365-.4935.3852.1952.136-.5282c-.1589-.0726-.3176-.1458-.4766-.218zm-3.7903.3381c.0923.0034.2784.0364.2015.1653-.0447.1732-.195.3399-.3817.3334-.1562-.0054-.1451-.1822-.0909-.2955.051-.1064.1468-.2033.271-.2032zm-4.148 1.8276c-.1039.309-.3874.5095-.6621.6541-.1882.099-.3935.1534-.597.2122-.3077.0888-.645.171-.8733.405-.1504.1542-.27.3907-.1783.6054.0991.2323.3309.3736.5528.465-.0923-.1697-.1169-.398.0152-.5556.1792-.2136.458-.331.7241-.3476.0682-.0042.2383-.0725.1442.048-.2224.4866-.424 1.0013-.4382 1.544-.0083.3177.0968.6561.3515.8587.319.2538.7467.3043 1.1392.2733.2649-.0209.5218-.1052.7655-.208.4333-.1827.83-.5134.9895-.971.0485-.1392.0789-.2866.0742-.4346-.4618.3642-.9609.7144-1.535.863-.308.0797-.6807.1214-.9416-.0851-.2693-.2132-.4162-.5696-.3755-.9146.0387-.3277.1865-.6337.3697-.9028.2366-.3476.5221-.6608.8383-.9356l-.3631-.5738z"/></svg>