<svg height="600" width="1200" xml:space="preserve" xmlns:xlink="http://www.w3.org/1999/xlink" xmlns="http://www.w3.org/2000/svg"><metadata/><path fill="#c00" d="M0 0h1200v600H0z"/><g><circle cx="600" cy="353" r="150" fill="#fff"/><circle cx="-600" cy="317" r="120" transform="scale(-1 1)" fill="#c00"/></g><g fill="#fff"><path id="a" d="m536 97-12 30 8 10-12 16v20l12-16v240h8V157l12 16v-20l-12-16 8-10Z" opacity="1" stroke="none" stroke-width="1" stroke-linecap="butt" stroke-linejoin="miter" stroke-opacity="1"/><use xlink:href="#a" transform="matrix(-1 0 0 1 1200 0)"/></g><g fill="#fff"><path id="b" d="M400 187c-8.577 0-18.09 3.99-20 10 9.994.532 19.983 12.563 20 20 15.37-8.564 35.202-2.657 51.379 16.713L420 263c5.732-.534 14.302-2.07 20-4 31.733-23.74 127.821 80.076 156 108-30.685-51.517-117.737-120.71-106-144-.741-4.79-8.659-14.646-10-16l-14.639 13.662C435.271 194.35 410.913 187 400 187Z" opacity="1" stroke="none" stroke-width="1" stroke-linecap="butt" stroke-linejoin="miter" stroke-opacity="1"/><use xlink:href="#b" transform="matrix(-1 0 0 1 1200 0)"/></g><path d="M548.642 214.317h102.716l-83.103 60.367L600 177l31.736 97.69z" fill="#fff"/></svg>