<?xml version="1.0" encoding="UTF-8"?>
<svg id="flag" width="1024" height="512" version="1.1" xmlns="http://www.w3.org/2000/svg">
 <path id="blue" d="m0 0h1024v512h-1024z" fill="#3771c8"/>
 <path id="white" d="m341.333 0h682.667v512h-682.667z" fill="#fff"/>
 <path id="yellow" d="m682.667 0h341.333v512h-341.333z" fill="#ff0"/>
 <g id="tree" stroke-width="2.39441">
  <path id="black" d="m625.558 409.959s0.47313-2.96072-3.05621-2.79757l-0.67862-3.46938s-0.17683-1.77068-1.30469-0.64061c0 0-2.36085 2.41129-4.52816 1.99621l-0.47312-4.77699s-0.22701-1.08448-2.1697-0.63342c0 0-3.45406 0.89974-4.31979 0.90694 0 0-1.11304-3.25105-0.48316-5.64554 0 0 1.26477-3.70691-3.26219-1.7107l-4.73701 2.65122-1.78282-5.63354s-0.22868-1.30282-1.73624-0.63581l-4.31238 1.99141-0.0629-7.60576s0.11422-1.85226-1.95559-0.85175c0 0-4.86293 2.20735-5.63069-0.16555 0 0-0.94506-6.00543-3.30209-6.27176l-6.02974 3.31343-1.56347-5.20167-5.60751 2.00341-3.74535-7.57217s-0.66501-1.73229-2.38475-0.19674l-6.8699 6.36292s-2.91236-1.90024-3.94129-5.61434c0 0-0.53215-2.10898-2.81893-0.41028l-6.02281 4.18197s-1.29059 0.6622-1.9532-0.63582l-0.66262-1.29562-1.32093-2.59843s-0.73502-1.3532-2.16779-0.41508c0 0-5.80345 4.18197-7.52558 5.71752 0 0-1.38378 1.27642-2.81654-0.41028 0 0-4.82112-7.02513-5.67514-5.81589l-4.06506 5.25206s-1.92286 3.0591-1.95655-0.85175l-2.53314-121.837s1.71735-7.83874 11.4413 2.66873c0 0-3.43495 3.29087-3.8223 8.50886 0 0-0.39212 4.56777-1.24614 5.87875 0 0-1.27648 2.61955 0.46668 3.90701 0 0 0.66047 1.30041 0.021 2.39113 0 0-1.25785 4.57594 1.99741 5.41473 0 0 3.25071 0.83999 4.35683 3.43747 0 0 1.54005 3.24624 4.57141 3.22057 0 0 3.24808 0.18978 4.55253 1.04609 0 0 4.77213 0.82824 4.96114-2.21767 0 0 0.79333-5.27436 3.36972-10.4607 0 0 7.22211-20.8228-16.0034-23.3286 0 0-1.75487-3.02623-6.99583-8.19383l-5.02423-5.1712s1.86814-33.4833 1.62058-37.1761c0 0-1.73838-0.85511-2.6065-1.06361l0.82033-5.22278s0.41171-2.3945-2.1912-3.02383c0 0-1.29393-14.8689 15.8165-13.2827 0 0 9.60495 0.62909 9.56744 20.448 0 0 3.25526 1.2757 4.28443-4.8197 0 0 1.47936-4.14143 2.80483-0.89398 0 0 1.57279 6.50568-0.78401 9.13459 0 0-2.78858 2.85012 1.10373 2.16368 0 0 0.66285 1.94823 1.5238 1.28866l0.8588-0.65836 4.30521-2.86332s4.18885 8.43856-6.48231 25.9179c0 0-2.14222 2.91826 0.87719 1.29682l8.60852-5.72879s2.16086-0.45203 2.83518 2.36666c0 0 0.46429 3.69011 1.98116 3.89405 0 0 0.40837 0.0305 0.19833-1.74092 0 0-0.73024-9.12044 3.18286-7.19788 0 0 0.10968 4.56777 3.93221 4.09223 0 0 1.05928-3.0507-2.49228-12.7978 0 0-0.88676-2.38418 1.2741-2.83621 0 0 3.24354-0.68068 3.45119-1.55354 0 0 0.25903-0.45803-1.74316-1.06961 0 0-6.73202-2.54805-3.94129-5.18175 0 0 2.89587-0.96284 5.40225-1.13391 0 0 5.52101-1.18573 6.24217-3.96675 0 0 0.6392-1.30977-1.52165-0.85535 0 0-2.93315 0.16987-6.93753-1.02498 0 0-2.59957-0.41243-4.76496-0.60918 0 0 0.8306-3.91996 3.85503-4.59944 0 0 5.18265-1.13055 4.94705-3.52049l-9.7426-0.13124s-0.44325-1.30042 2.78405-3.50057c0 0 6.46152-3.31894 3.20149-5.0282 0 0-3.87821 2.20711-11.46 1.40599 0 0-0.70945-7.16525 0.56249-10.0027 0 0 0.79333-1.89664-0.65568-0.8611 0 0-3.2273 2.4192-5.61468 1.56985 0 0-0.24493-3.47465 1.90183-5.2319 0 0 0.61626-1.48444-0.87505-1.29585 0 0-4.30283 3.07877-6.25842 2.22702 0 0-1.08509-0.2061 0.20072-1.73853 0 0 1.9274-2.40745 0.20072-1.95878 0 0-4.31955 1.34264-6.45699 4.18581 0 0-1.07098 1.31337-1.94603 0.0178 0 0-0.88222-1.73157-1.51448 0.0139 0 0-1.01293 8.04963-17.2589 6.2372 0 0 13.9429-14.0325 34.0881-12.0363 0 0 7.80349 1.67063 11.8031 13.1517 0 0 2.78166-3.50177 2.33123-5.45359 0 0-0.91017-4.99053 1.70565-2.62291 0 0 3.70329 2.13921 8.30051 8.39993 0 0 1.73384 0.2025 1.06644-1.74813 0 0-1.57517-7.15565-3.77115-10.614 0 0-0.23561-2.16969 3.8622-3.72779 0 0 2.59479-0.45922 0.41769-1.74332 0 0-5.39987 0.91845-5.63332-0.81888 0 0-0.23322-1.95399 1.7011-3.49217 0 0 3.01033-1.9823 2.34055-4.36768 0 0-1.71975 1.10368-4.96568 1.3496l-3.24355 0.24617-3.67988 0.0317s2.35441-3.28031 1.89944-5.44879l-8.19776 3.1138s-2.80029 1.33089-1.96945-2.37218l1.01507-7.83178s-6.42425 7.66191-9.8917 7.04097c0 0-1.52858-1.28866 1.66837-6.96827 0 0-0.59499-0.64565-1.5121 0.23081 0 0-6.22353 5.92194-8.39609 5.28925 0 0-0.0186-2.17304 1.46072-6.09661 0 0 1.63133-2.94057 0.0141-2.07347-0.31972 0.17107-0.6791 0.33854-0.6791 0.33854s-7.66084 3.3283-13.2848 14.8972c0 0-4.23998 9.81623-11.5426 16.1823 0 0-0.72355-8.46782 7.19535-18.5348l10.4962-12.0457s9.92205-9.11803 18.8362 0.7018c0 0-0.18423-6.71059 3.41153-5.89627 0 0 6.29594 2.33356 9.10555 1.87313 0 0-1.71043-7.56449-5.05219-8.4304l-2.82108-0.84335s-2.60673-1.2805-0.67217-2.60083c0 0 4.93533-4.82666 2.34054-4.36744 0 0-3.6543 2.42161-5.17811 1.78316 0 0-2.17017-0.84959-3.88991 0.68884 0 0-2.15154 1.32129-3.23901 0.67948 0 0-0.54601-3.5416 0.8122-5.8754 0 0 0.81674-2.02092-1.08987-1.29441 0 0-3.45358 1.33544-6.88853 4.40726 0 0-2.35919 2.19535-2.16564-0.19794 0 0 0.81675-5.43944-0.46667-3.90821l-6.20704 7.88072s-1.92979 2.62435-2.16564-0.19794l0.39452-4.35208s-7.74519 5.28708-10.263 14.2175c0 0-0.15388 6.95555-1.66956 6.96827 0 0-1.30899-1.07296-0.29391-8.90714 0 0 4.56782-22.2062-4.37189-29.5166 0 0-2.53888-0.796566-3.0034 3.07062 0 0-1.73145 12.1851-1.89944 17.8366 0 0-1.12594 7.39918 0.73502 22.1594 0 0 1.89729 18.673-0.62414 27.3867 0 0-5.00894-3.65028-4.68563-16.0393 0 0 1.13048-19.1334-2.60435-25.4023 0 0-1.31018-1.29466-1.28581 1.53243 0 0 0.26835 5.86339-1.24614 5.87755 0 0-1.31591-1.94367-1.1281-5.20527l0.18782-3.26256s0.57397-4.37463-1.31018-1.50795c0 0-2.1446 2.40985-2.39311-1.28387l-0.26954-6.08269s-0.45043-1.95062-1.51568 0.013c0 0-2.10828 6.32286-3.63902 4.59705 0 0-2.44329-7.1499-7.24457-11.6706 0 0-1.29728 0.22842-0.84924 1.96454 0 0 2.67054 8.23366-1.02463 6.52656 0 0-6.51864-2.98256-8.501-6.87805 0 0-1.96347-1.93887-1.72787 0.44987 0 0 2.21438 3.95643 0.47026 4.1263 0 0-3.00913 0.554-4.77906-1.9144 0 0-2.39789-1.93431-1.94269 0.67013 0 0 2.00434 6.28303 0.70587 6.29454 0 0-2.8108 0.24257-4.98456-0.82343 0 0-4.9284-2.00797-4.5468-0.17803 0.22534 1.08352 0.87863 1.51227 2.1924 3.24025 0 0 2.40243 2.36882 0.0268 3.04254 0 0-5.82567 2.00797-10.9173 13.7866 0 0-0.71518 2.63251 2.59957 0.19459 0 0 18.6634-18.8546 37.4659 2.71072l-2.35704 2.62794-9.16838-8.82868s-1.93218 1.9727 0.92068 6.29335c0 0 2.27866 3.00512 0.48532 5.86363 0 0-14.5601-15.3154-15.0536-13.7751 0 0-1.71855 1.53843 2.00673 6.9378 0 0 0.93478 4.1215-0.82941 4.13446 0 0-6.60968-0.51657-11.8882-1.16102 0 0-2.26241-0.18163-3.59959-0.72866 0 0-1.11877 1.90959 2.11068 3.40099 0 0 9.6936 5.04212 3.26816 5.86004 0 0-5.10213 0.80712-11.1928-3.32014 0 0-1.47578 4.19156 4.62278 9.26679 0 0 1.71401 1.12695 0.21124 2.46959 0 0-4.3229 3.26616-5.4056 9.16483 0 0-0.52856 4.56321-1.83181 6.85574 0 0 2.8433 0.73346 5.83953-2.90075l2.43971-2.30308s1.50756-0.58231 1.90541 1.6927c0 0 0.0757 8.54868 1.96707 8.53237 0 0 0.80383 0.19338 1.49465-2.29277 0 0 5.45458-22.0469 21.9607-19.7613 0 0 12.1168 1.03218 23.3715 11.5701 0 0-0.55771 0.95347-4.34153 0.98754 0 0-4.97501-6.41427-17.6787-9.53167 0 0-3.03494-0.73202-0.93358 1.33905 0 0 5.14203 3.94348 3.26003 5.09969 0 0-8.72035-2.01156-14.1984-1.01322 0 0-0.55891 0.95348 0.96035 1.70086 0 0 5.69951 2.60803 2.68106 3.58623 0 0-7.9514-0.49906-12.6466 3.34101 0 0 1.52977 1.88513 5.13032 2.61259 0 0-7.53491 3.6762-10.3364 7.69238 0 0-0.55867 1.14326 1.33359 1.12575 0 0 9.45084-0.84359 7.19894 1.07656 0 0-8.28737 4.25395-12.5357 16.0688 0 0-0.17014 1.90144 1.71066 0.74402 0 0 6.01803-4.04185 6.04026-1.57345 0 0-0.6208 15.3927 1.09321 16.7072 0 0 1.1551 2.46024 5.43259-6.12708 0 0 2.37998-6.11196 5.65985-1.75964l4.39745 5.28109s1.91831 3.02023 2.45835-0.0233c0 0 1.28126-4.95094 0.85545-10.4559 0 0 0.42581-1.60849 1.32069-0.39132 0 0 0.12713 4.36263 2.29156 2.44967l-0.0198-2.2786s5.09519-1.5641 5.12554 2.04299l0.0315 3.6095s-0.94386 3.49361 0.61961 5.88355l0.0268 3.03775s-0.16679 2.47319 1.141 0.56239l1.30684-1.9108 1.86694-2.86667s1.11997-1.72102 2.07674-0.39973c0 0 4.41728 7.36896 11.7995 7.87281l0.65449-11.5922s2.45954-0.2133 0.89846-5.51694c0 0-0.77707-2.27381 0.54123-3.0435 0 0 0.85067-0.79657-0.0174-1.89904 0 0-1.16322-3.22057 1.09679-4.37919 0 0 0.55413-1.04394-0.40263-2.65578 0 0-1.98809-11.0032 1.40146-12.9303 0 0 1.88414-0.77665 1.89943 0.93261l0.0151 1.70926s-2.32167 52.6988-1.41054 82.4628l1.37087 106.687s-1.46311 5.66713-6.71004-0.15595c0 0-2.41271-3.67572-4.55373-1.04849 0 0-1.05951 2.62003-2.15272 1.32441l-3.70927-3.22705-1.498 1.75148s-0.82964 1.43478-2.38953-1.06528c0 0-1.13526-1.77788-2.60196-0.41028l-3.43614 3.07109s-5.90382-6.90037-8.50673-7.52898l-5.76857 8.52709s-1.48748 3.0543-2.80483 0.89254c0 0-1.62416-2.41849-2.81773-0.41028-0.45736 0.77017-0.63944 1.09407-0.63944 1.09407s-0.47838 1.13487-1.72572 0.66461c0 0-1.83277-2.00341-2.91331 0.3215-0.82845 1.77788-0.96251 2.10658-0.96251 2.10658l-1.90421 4.79619s-1.27649 2.62003-3.02658 0.46067c0 0-3.27629-3.44539-3.67653 0.24952l-0.40837 2.83117s-0.41172 2.3945-2.3709 1.10847c0 0-2.07315-1.96742-3.03231-0.19194l-2.12931 3.93004s-1.50039 1.75149-2.59264 0.6742l-1.09082-1.07728s-1.83301-2.39929-2.59503 0.024c-0.55294 1.75389-0.8435 2.61524-0.8435 2.61524s-0.46429 2.66801-2.80245 1.3292l-2.82705-1.49476-1.26717 3.48618s-0.57516 2.20735-2.59264 0.45826c0 0-2.18403-2.15456-3.02658 0.46067l-0.84231 2.61523s-0.83777 3.26784-2.36515 1.76108c0 0-2.73721-3.56055-3.67749 0.24953l-0.83896 3.0519-4.33103-0.39829s-3.46649-0.40308-1.05832 2.83357l2.40817 3.23905s0.77707 2.16656-1.4851 3.27263c14.768 5.11698 24.0697 4.13274 31.6667 1.0073 7.597-3.12542 13.4892-8.39203 26.3121-10.861 14.0538-2.25773 31.7298-1.75683 31.7298-1.75683 10.9363-3.74815 21.101-3.14454 32.387-2.25968 0 0 9.42224 3.53687 16.9595 2.32763 0 0 5.83188-0.74333 12.7868-0.5058 41.0482 0.64292 66.3422 16.5499 71.6579 4.19785z" fill="#161413"/>
  <path id="green" d="m489.573 402.039c-27.726-2.57685-44.0711 9.08372-44.0711 9.08372l-7.57697-0.14875c-0.22628-1.08688 0.18089-4.13399 0.18089-4.13399 0.2251-1.87864 2.80029-0.83975 2.80029-0.83975l2.92622 0.23033c1.26717-3.48857 2.66839-4.46268 2.66839-4.46268l3.68681 0.83975c2.85047 0.70779 2.83063-1.49236 2.83063-1.49236s-8e-3 -0.98611 0.3852-2.01541c0.66142-1.73229 1.9391-1.10367 1.9391-1.10367l2.82825 1.71309c2.61701 2.3681 4.92721-5.69352 4.92721-5.69352s-0.0303-0.0168 0.85043-1.74669c0.6815-1.3388 1.72572-0.667 1.72572-0.667l3.92146 3.00871c2.17376 1.06769 2.57735-2.19535 2.57735-2.19535l0.19952-1.95783c-0.0198-2.39209 1.72692-0.6694 1.72692-0.6694l2.61462 2.14977c2.17949 1.72029 4.08012-3.7285 4.08012-3.7285 1.07816-2.50967 2.80842-0.6766 2.80842-0.6766l3.05573 3.01351c2.18069 1.72269 4.31597-1.34121 4.31597-1.34121 2.6789-2.92714 4.76496 0.39109 4.76496 0.39109l1.75129 2.15936c1.74913 2.15697 3.25191 0.62382 3.25191 0.62382l1.9274-2.19056c1.92524-2.62482 4.34034 1.26443 4.34034 1.26443 2.19 2.79758 3.46195-0.24713 3.46195-0.24713 2.76636-5.24005 6.05531-0.48705 6.05531-0.48705 2.0268 2.61523 3.47127 0.83495 3.47127 0.83495l4.92363-5.90946c0.95222-0.78937 1.73145 0.41988 1.73145 0.41988l3.29277 4.7506 2.13744-2.62723c0.85641-1.31001 2.16539-0.0192 2.16539-0.0192l1.53097 1.72509c1.7477 1.72269 3.25287 0.83975 3.25287 0.83975l3.22252-2.63442 1.02439 1.6795c1.38163 2.41369 4.17953-0.42227 4.17953-0.42227 1.07338-1.31481 1.51448-0.23033 1.51448-0.23033l3.2739 3.23185 1.93671-1.54035c1.50278-1.09888 2.16086-0.23753 2.16086-0.23753l1.97877 3.45978 3.01272-2.20015 1.31615 2.16176c1.10133 2.16416 3.89446 0.18235 3.89446 0.18235 3.02203-0.89494 3.03828 0.62621 3.03828 0.62621l0.23346 2.16897 3.89231-0.6862c1.17851-0.42468 1.30444 0.64061 1.30444 0.64061l0.66501 1.73469c0.66739 2.3825 2.6065 1.27882 2.6065 1.27882l1.50994-0.6646 2.19335 3.23904 3.23662-1.11327c3.25526 1.05809 0.24278 3.03991 0.24278 3.03991-5.61683 1.13726-13.2194-2.0562-13.2194-2.0562-13.2476-5.31683-34.6226 0.74138-34.6226 0.74138-2.37543 0.67421-3.90162-0.39828-3.90162-0.39828-21.2714-7.41862-39.1811-1.39159-39.1811-1.39159-1.9391 1.10368-4.97261 0.6958-4.97261 0.6958zm123.417 6.07501-0.69081-4.7746s-1.52381-0.85415-3.24355 0.46547c0 0-2.16324 0.0192-3.0359-0.84216l-0.26595-5.21366s-0.8729-1.07968-2.59503-0.19434l-1.72429 0.88294-2.15392 1.10607s-1.76658 0.94772-2.18188-1.71789l-0.24039-2.82397s-0.78878-3.18866-3.68919-1.05329c0 0-4.29375 4.16757-3.91812-2.35611l0.1914-3.0423s0.23346-2.36811-2.39192-1.28363l-2.58547 1.10848s-2.80029 1.54754-3.04999-2.14497c-0.24732-3.69251-0.24732-3.69251-0.24732-3.69251s-0.45975-2.60324-2.39407-1.28363l-1.93695 1.32201-2.36612 1.54035s-1.73623-0.41748-1.97423-3.02311c0 0 0.18663-3.26064-2.39407-1.71789l-2.58332 1.76108s-2.61582-1.93143-2.85381-4.32113c0 0-0.24756-3.69011-1.98355-4.10999l-6.65532 5.92626s-1.93672 1.53794-3.25526-0.83976l-2.41988-4.54186s-1.52834-1.29082-3.88991 0.6862l-3.00795 2.41609s-1.92739 2.40889-3.89469 0.0336l-2.41056-3.02071s-1.09655-1.7299-3.02873 0.0264l-1.93456 1.75628-2.79097 2.41609s-2.13744 2.84316-4.54322-0.17755l-2.40602-3.02071s-1.75248-2.3729-2.81892-0.62621l-1.06645 1.74668-4.70427 6.78041s-0.69201 1.84505 1.11185 3.24864c1.71042 1.33161 1.74316 1.28842 1.74316 1.28842s2.18069 1.93623 3.4641 0.18475l4.71383-5.47039s1.29035-1.95303 2.54126-0.39109c0.83754 1.05569 1.29967 1.80667 1.29967 1.80667s1.99048 3.54616 3.1083 1.56194l1.2741-2.83597s0.63705-1.82586 2.2495 0.23034c1.29967 1.65791 1.66622 2.12577 1.66622 2.12577s1.54698 2.77358 3.47677 1.48996l2.36157-2.19295s1.93218-1.54035 2.38499 0.62861c0 0 0.24732 3.47658 2.61343 1.7155l1.7176-1.53555s0.73501-1.22604 1.52141 0.63821c0.90539 2.15697 0.88436 2.16416 0.88436 2.16416s0.44565 1.73709 2.1654 0.41508l1.72237-1.31721s1.93194-1.75628 2.59718 0.19434c0 0 0.0349 3.91085 1.97399 2.59124 0 0 2.35464-2.63202 3.02658-0.24473l0.0189 1.95783s0.88436 2.59843 3.67987 0.39828c0 0 4.51765-3.08069 4.9774 0.17515 0 0 0.0303 3.25824 2.18188 1.72029 0 0 2.36372-1.97942 2.81176-0.24473l0.88675 2.16657s0.45043 2.38489 2.17256 1.28362c0 0 1.93457-1.53795 2.16563-0.0168 0 0-0.39666 4.12919 2.61821 2.58164l1.72214-1.10127s1.93671-1.31961 2.38953 1.06528c0 0 0.24492 3.25824 1.75248 2.3729 0 0 3.24594-1.73948 2.82586 1.06289 0 0-0.47839 3.30623 5.87585 3.86047 0 0 7.58389 1.23563 9.31774 1.43717 0 0 2.81893 0.61422 4.12098 0.83256zm-204.899 6.59806s13.1716-3.37581 18.7884-4.51068l2.77448-4.58745 4.12672 1.7011s0.86692 0.20874 1.50063-1.53555l0.63466-1.74428 0.84709-2.18096s1.05832-2.61763 2.80602-0.6766c1.75009 1.94103 1.75009 1.94103 1.75009 1.94103s0.65234 0.42707 1.2882-1.09648l1.48055-3.92524s0.84709-2.18096 3.02419-0.679l2.17734 1.50195s0.83419 0.72699 1.29154-0.6646c0.58233-1.76108 0.63466-1.74429 0.63466-1.74429l1.26836-3.48617s0.63227-1.96262 2.16205-0.23753c1.53073 1.72509 1.53073 1.72509 1.53073 1.72509l1.79669 1.99381 4.20749-8.34954s1.05593-2.83596 2.80483-0.89493c1.75009 1.94102 1.75009 1.94102 1.75009 1.94102s3.27748 3.66373 3.24379-0.24712c0 0 0.17252-5.00013 2.34054-4.58265l3.7033 2.79277s1.96013 1.50436 3.23996-0.6838c1.28007-2.18335 1.28007-2.18335 1.28007-2.18335l1.06525-1.96502 5.01348 4.08599s1.75128 2.15457 3.89923 0.40069l2.14939-1.75869 1.50277-1.31721 4.15587 4.95934s1.19716 1.44198 2.59264-0.45586c1.64615-2.23855 1.71282-2.18816 1.71282-2.18816s1.28342-1.75149 2.80722-0.679l1.525 1.07488s2.18642 2.58644 3.25167 0.62142l1.06406-1.96262s0.73287-0.91413-1.10492-2.59844c-1.24734-1.14446-1.30779-1.07728-1.30779-1.07728s-3.91572-3.86046-5.38815-2.3849l-1.32548 1.79227s-0.42008 1.52595-3.25191-0.62381l-2.83398-2.14497s-1.71736-1.93623-2.38141-0.19674c0 0-1.47696 4.35951-3.22825 1.98661-1.75248-2.3777-1.75248-2.3777-1.75248-2.3777s-1.97184-2.59124-3.2414 0.6814c0 0-0.41411 2.17616-1.94149 0.667 0 0-1.54006-2.80957-3.04068-1.27402 0 0-2.77568 4.36911-5.61779 1.13487l-2.84354-3.23425s-2.71976-3.86526-4.12672-1.7011l-5.76976 8.30875-1.30779-1.07488s-1.38975-1.47557-1.94746 0.0168c-0.57994 1.54995-0.63586 1.52596-0.63586 1.52596s-0.67313 2.14256-2.15034 1.54034l-1.5238-0.85655s-1.52261-1.07248-2.36277 1.97942l-0.62056 3.26544s-0.62199 3.26304-2.79336 2.41369l-2.17017-0.84935s-2.24712-1.24044-2.80244 1.32921l-0.83897 3.0495s-0.0724 1.6915-1.72452 0.88534c-1.91449-0.93572-1.95416-0.85175-1.95416-0.85175s-1.95559-0.85415-3.01845 1.32921l-1.0631 2.18336s-0.63227 1.96022-1.93791 1.10367l-1.30684-0.85895s-1.83516-1.52835-2.28319-0.36949c-0.48436 1.24764-0.73502 1.7011-0.73502 1.7011l-0.84255 2.61523s-0.13405 1.14927-1.94389 0.45107c-2.1771-0.83975-2.17136-0.84935-2.17136-0.84935s-2.15966-1.16126-2.37543 0.6742c0 0-0.39667 4.13159-1.48653 3.27024l-1.08963-0.85895s-1.9661-2.15456-2.81319 0.024l-1.05593 3.0519s-1.04877 3.70691-3.66005 1.99141l-2.17375-1.07008s-0.20646 1.08928 0.23704 2.38969c0 0 0.44565 1.51876-1.71999 1.31961 0 0-2.60076-0.41267-1.50612 1.09888zm126.319-285.202s8.41474-2.84676 13.7981 0.0386c0 0 1.95798 1.28746 1.61723-0.50145l-0.34074-1.79108-0.34075-1.79011s2.59264-0.83783 4.55277 0.61134c0 0 2.28702 1.93791 5.68684 0.92805 0 0 0.119-4.8888-10.2559-3.65773l-0.65115 7e-3 2.56469-3.44658s1.44686-1.80427-1.1434-1.12935c0 0-6.31935 1.52163-10.6504 7.10047 0 0-1.9391 1.15862-1.14554-0.80232l4.46866-8.84164s0.62534-2.61379-0.98712-1.29562c0 0-4.37069 1.17973-8.14877 14.7413zm-5.81516 3.4725c6.45006-5.10906 4.56902-15.8473 4.56902-15.8473-7.91293 4.47061-4.56902 15.8473-4.56902 15.8473zm-5.29926 6.24176s2.73004-3.12076 2.84904-7.84905l0.12139-4.72853s0.39905-9.94507-1.53074-7.97093c0 0-3.79194 3.23569-3.17831 7.36175 0 0 1.36992 8.30036 1.73862 13.1868zm-5.77095 8.20079 2.24735-2.95353s-0.0562-6.35669 0.73956-8.15736c0 0 0.75151-6.85095-0.56011-8.30612 0 0-0.8165-0.64421-1.44208 2.13226 0 0-0.6067 4.8936-1.24614 6.03926 0 0-0.95892 1.63896-0.77468 4.24675 0.18686 2.60563 0.18686 2.60563 0.18686 2.60563s0.2098 5.53877 0.84924 4.39311zm-8.10075 1.7011 0.43394 12.383c2.11545 0.6339 2.1783-10.6128 2.1783-10.6128 0.28124-2.98976-0.36512-4.56082-0.36512-4.56082-1.3195-2.43337-2.67174-8.61419-2.67174-8.61419-1.40146 6.85815 0.42462 11.4048 0.42462 11.4048zm-1.48414-21.0113 2.83518 8.61179 0.83777 2.92762c0.83777 2.92425 1.1422 0.64085 1.1422 0.64085l0.27431-5.70528 0.13406-3.2616c0.13429-3.2616-2.67652-8.94097-2.67652-8.94097l-0.82845-1.94847c-0.82821-1.94823-1.79214-0.63605-1.79214-0.63605zm0.79094-20.8698c-0.0373 7.0141 3.35681 12.5202 3.35681 12.5202l0.99524 2.59963c0.99763 2.59724 1.08867-5.55316 1.08867-5.55316l0.11541-5.21439c0.11805-5.21678-2.83637-8.77589-2.83637-8.77589-2.29729-2.91371-2.71976 4.42357-2.71976 4.42357zm-2.44186 81.2914s-0.20431 1.18789-0.22988 2.50702c-0.0466 2.44368 1.46431 0.47554 1.46431 0.47554 2.96469-13.7163 16.0873-16.6029 16.0873-16.6029-9.76816-3.33646-17.2646 11.8863-17.2646 11.8863zm23.984-12.376c6.84887 3.36093 9.87306 15.2322 9.87306 15.2322 2.56469-3.77001 0.73502-8.80757 0.73502-8.80757-0.3429-2.1157 2.2636-0.99811 2.2636-0.99811 3.11524 3.72203 4.81419 12.1827 4.81419 12.1827 3.5236-5.57284 0.73263-9.13555 0.73263-9.13555-4.93079-6.8008-18.4254-9.28911-18.4254-9.28911-0.80981 7e-3 7e-3 0.81552 7e-3 0.81552zm-17.9284 65.191-0.29295 3.42427s3.56327-0.84695 5.52937 1.41631c0 0 2.44545 1.12119-9e-3 -1.30258 0 0-2.78643-2.9077-5.2271-3.538zm-6.84433-3.20066c1.96252 1.61305 3.90043 0.61734 3.90043 0.61734 3.2132-2.32899 3.17019-8.66457 3.17019-8.66457l-0.14122-15.9726zm1.56228-25.2758c-1.2729 2.94418-2.18642 9.63581-2.18642 9.63581l0.23083 7.98413c0.15293-1.14351 3.62754-12.0939 3.62754-12.0939l1.26717-3.59654c1.26717-3.59775 0.24373-9.1298 0.24373-9.1298-0.62056 3.2652-3.18285 7.20028-3.18285 7.20028zm-1.84472-6.82887 0.0246 2.93362c0.0268 2.93218 0.50634 2.1133 0.50634 2.1133 1.62058-0.17683 3.47462-10.9513 3.47462-10.9513l-0.0652-7.33392c-4.69519 1.34624-3.94034 13.2383-3.94034 13.2383zm46.1875-7.90903c5.45817-7.05608 0.56489-9.94627 0.56489-9.94627-2.10948 0.34574-0.56489 9.94627-0.56489 9.94627zm3.74296 0.78265c1.48199 2.43217 1.19716 7.16045 1.19716 7.16045 1.0619-8.64705-0.73741-10.2627-0.73741-10.2627-0.81436 8e-3 -0.45975 3.10229-0.45975 3.10229zm-4.98886 23.515c5.35303-0.37261 5.54897-15.0448 5.54897-15.0448-1.54699 8.48894-5.54897 15.0448-5.54897 15.0448zm8.45894-16.3745s-0.27074 6.19618-1.55176 8.00044c0 0-1.28342 1.96695 0.0628 7.33369 0 0 1.14578 0.96883 1.12714-1.14927-0.0186-2.11929-0.0186-2.11929-0.0186-2.11929l-0.0234-2.60899s0.1448-2.1193 1.61484-0.99115l1.47028 1.12695s2.78141 2.25653 2.43374-0.18379c0 0-0.35222-2.93002-4.26102-4.85137 0 0-1.47935-1.78076 0.30563-1.95999l1.78521-0.17802s3.08274-0.0269 0.79572-1.79947c0 0-1.15032-1.45637-3.74057-0.61974zm-0.54362-6.67772 0.18662 2.93338s0.9778 0.64205 2.58786-0.83759c0 0 3.54702-3.12916 4.35659-3.13612 0 0 2.49467-1.62024-1.15509-2.10874 0 0-3.24809-0.29751-5.97598 3.14907zm-0.20789-5.05051 3.04068-4.753s0.34074-0.3443 0.15866-0.65357c-0.34313-0.57751-3.88753 0.84935-3.88753 0.84935-1.94149 0.83304 0.68819 4.55722 0.68819 4.55722zm-2.48989-6.00879 4.48276-7.20964c-4.39387-1.42926-7.60253 2.83741-7.60253 2.83741zm-5.89664-6.14003c1.63348 1.28986 2.90519-1.98206 2.90519-1.98206 1.26931-3.43387-0.0748-8.31211-0.0748-8.31211-3.23877 0.84455-5.94109 7.22475-5.94109 7.22475-0.31494 1.30738 3.1107 3.06942 3.1107 3.06942zm-17.9332-8.80517 2.27507 0.30687s-0.50634-2.44128 0.62773-2.45184c0 0-2.44306-1.11903-2.9028 2.14497zm5.17333-2.329c-0.78161 2.08307 0.36178 3.90941 0.36178 3.90941l1.13885 0.47794c3.09181 0.78961 1.39763-7.18372 1.39763-7.18372-0.50156-1.62384-2.89826 2.79637-2.89826 2.79637zm9.55358-3.01783c-1.62655 0.0151-3.8598 4.10975-3.8598 4.10975-1.27625 2.61835-0.12115 4.89096-0.12115 4.89096l1.30898 0.96548c3.0942 1.2769 3.04068-4.91567 3.04068-4.91567 0.14456-2.1205 0.77707-3.7561 0.77707-3.7561 0.63227-1.79827-1.14578-1.29442-1.14578-1.29442zm-35.318 7.64775s3.66936-7.20388 6.74612-8.04483c0 0 5.16664-3.14451 6.60872-5.27437 0 0-10.0425 2.37122-13.8507 12.3456 0 0-0.47599 1.1459 0.49583 0.97363zm-2.15607-5.19687c-0.63371 1.79947 1.141 0.64301 1.141 0.64301 1.75941-2.94993 0.93335-4.57233 0.93335-4.57233zm54.175-4.39095 0.13071-3.58718c-0.6674-2.11354-5.54897-3.21002-5.54897-3.21002 0.0115 1.30282 5.41826 6.7972 5.41826 6.7972zm-12.7572-10.9691 4.54322-0.0398s5.80584-4.29017 5.94587-6.73745c0 0-1.14578-1.12935-4.69734 1.02042 0 0-7.75666 4.14382-5.79175 5.75686zm8.29096 1.55474s5.36951 1.25699 9.70269-3.99746c0 0 1.76657-2.46119-3.89924-0.78001 0 0-6.31218 2.33715-5.80345 4.77747zm4.89113 2.23879 7.67254 5.14888s2.12119 1.28386 0.47838-1.1471l-2.95417-3.55911s-0.66047-1.13511 0.80264-0.98395c0 0 2.75824-0.3515 1.29035-0.82608 0 0-10.2324-0.88798-7.28974 1.36736zm-38.298 1.15382s10.935-11.6685 10.5522-18.1857l-0.50634-2.27501s-2.08367 3.27671-3.21081 4.26546c0 0-9.46015 12.9596-9.91751 16.3862 0 0 0.33597 1.13751 3.0825-0.19098zm8.41234-3.00728s9.03314-6.60046 9.62121-13.4502c0 0-0.49703-1.30042-2.10709 0.18139 0 0-8.2164 7.40638-10.9256 13.1352 0 0-0.476 1.30978 1.79669 0.96308 0 0 0.80981-0.17107 1.61484-0.82944zm10.9653-8.40928-3.37904 3.45258c-3.38118 3.45354-1.9133 3.92692-1.9133 3.92692 2.92622 0.46403 7.12893-1.69174 7.12893-1.69174 7.25939-4.9531 6.06702-11.2992 6.06702-11.2992-4.04858 1.17613-7.90361 5.61147-7.90361 5.61147zm-44.6847 31.526s-25.7235 9.68139-7.45677 38.0418c0 0 1.62751 0.47458 0.47719-1.14566l-1.15032-1.61785-2.3102-4.21748s-0.83538-2.76374 1.1281-0.98754l1.96372 1.77355 2.78165 2.58332s2.08606-2.78942-4.80702-11.3662c0 0-1.48079-2.26925 0.63108-2.1241 0 0 0.81435 0.31863 1.80027 1.61449l0.98472 1.29442s1.9102 2.23998 1.79215 0.79896c0 0 0.61961-3.42907-5.26557-8.10217 0 0-1.81652-3.407 0.46787-2.1241 0 0 2.61487 2.09699 3.60533 3.88014 0 0 2.94151 2.09242 1.61245-1.31673l-3.29946-6.00184s-0.9919-2.11113-0.0234-2.7719c0 0 1.44806-1.31673 2.28105 1.12119 0 0 1.16561 3.24984 1.65331 3.24624 0 0 0.81913 0.97004 0.63012-1.96214 0 0 0.25879-7.50019 2.51068-9.80231 0 0 1.61724-0.83064-7e-3 -0.81408zm-4.65194-12.1817 5.22949 3.86503s-0.0268-2.93362-4.61347-7.61848c0 0-0.97994-0.80832-0.63824 1.14566 0 0 0.66286 1.62264 0.0222 2.60779zm-2.45022-1.7714s1.36394-11.0955-5.98434-15.921c0 0-0.31948 0.4921 0.503 1.78891 0 0 3.28799 4.69782 3.00435 9.2632 0 0-1.11782 2.12985-1.9391 0.99594 0 0 0.25902-7.33608-3.32766-9.09692 0 0-1.94603 0.0163-0.91232 7.01506 0 0 0.22628 0.8635 1.31257 1.45517 1.98115 1.08112 1.95654 1.12335 1.95654 1.12335zm-43.4512 5.76407s8.95357-15.5649 16.4232-15.141c0 0 5.34968-0.70059 15.6101 3.12221 0 0 0.81554 0.48033 0.62534-2.77767 0 0 1.05259-9.46137-5.31217-13.4809 0 0 1.37088 8.29916-4.27965 11.9358 0 0-2.58332 1.48996-2.44903-1.60873l0.29511-3.42427s0.49822-3.0471-5.58768-7.9371c0 0-1.03944-0.82488-1.13407 0.33494 0 0-0.60909 4.57017 1.03849 7.32576 0 0 2.56325 4.12966 0.0385 4.40246 0 0-1.12953 0.82368-2.94963-3.23328 0 0-2.16898-6.665-9.94666-4.9663 0 0-1.15391 0.49449 0.665 1.62384 0 0 2.06886 1.15742 2.62873 3.56391 0 0 1.00002 3.26376 4.57619 3.70787 0 0 1.79668 1.28746 9e-3 0.97819 0 0-7.48831-2.37938-14.7828-1.33688 0 0-1.45977 0.17706 6e-3 0.6514 1.46431 0.47698 1.46431 0.47698 1.46431 0.47698l3.58549 1.59793s-10.1684 6.60982-8.81618 12.6268c0 0 1.29991 0.15211 2.90878-1.49021l1.60791-1.64615 6.76357-6.08941 0.49487 0.81048s-5.30069 6.40252-4.1303 10.1421zm44.8596 6.77368s-1.13766-0.31622-2.25763 1.64832l-0.48077 0.65621s2.42226-1.32513 2.7384-2.30453zm-12.6944 14.6172c1.43969-2.45784 0.60551-4.89576 0.60551-4.89576-2.08152 3.28032-0.60551 4.89576-0.60551 4.89576zm0.67193 21.0207c1.59167-3.6011 3.53651-3.94324 3.53651-3.94324 0.26261-7.01169-2.01031-7.15445-2.01031-7.15445-3.04164 4.91567-1.5262 11.0977-1.5262 11.0977zm-6.92939-12.6524 0.2055 4.72469s3.05334-3.44899-0.2055-4.72469zm6.47323-2.17664c4.20964-1.34025 2.72096-4.58769 2.72096-4.58769-3.24235 0.51897-2.72096 4.58769-2.72096 4.58769zm4.71502-17.8085 4.33103-5.74055s1.61006-1.4818-2.4433-0.95708c0 0-5.24812-6.14819-8.8219-6.44114 0 0-0.31733 0.81792 0.34433 2.27765 0 0 1.83516 5.68896 0.86572 6.18682l-0.96967 0.49665s-6.05674-5.97592-10.4391-5.77438c0 0 1.00122 3.08813 4.59722 5.82716 0 0 3.1083 2.7424 1.4968 4.06057 0 0-0.80503 0.82344-2.93076-0.95132 0 0-4.74656-4.52099-11.8848-3.96915 0 0 8.14997 3.83911 9.96195 6.92028 0 0 0.66859 2.1121-1.44686 1.48061 0 0-11.0831-5.11842-15.2648-0.68164 0 0 9.43697 2.36162 11.096 6.5851 0 0 0.0139 1.6296-3.07317 1.33209 0 0-11.0576-2.34891-14.8564 8.60602 0 0-0.43298 1.60969 1.30325 0.64541l1.61819-0.67132s2.71044-0.45563 4.6916-1.8357c0 0 3.23304-1.4938 3.5702-0.0305 0 0 0.20072 0.9326-0.79906 1.31097 0 0-5.15708 2.14041-5.12554 8.03092l0.0502 5.54237s0.50515 2.11354 1.62751 0.47338c0 0 5.29233-7.2178 5.4173-11.4552l-0.0163-1.79371s1.94365-0.50601 1.7955 1.12599l-0.13405 3.09629s-0.12832 3.62581 4.93653 7.61727c0 0 1.63921 1.77836 1.45618-0.50265l-0.18209-2.28101s-0.61841-4.90391-2.33576-7.14869c0 0-1.68032-6.50425 1.23538-7.18253 0 0 2.80722 5.5155 5.57263 6.14459 0 0 2.11641 0.6303-0.7539-11.8933 0 0-0.35222-3.25464 0.61841-3.42667 0 0 1.7759-1.15766 2.29276 2.2599 0 0-0.12474 4.23979 2.8108 5.68056 0 0 2.58308-1.4902 2.5341-7.03017 0 0 0.42008-7.6655 3.97164-9.81527 0 0 1.61604-0.9933 1.7888 0.30927 0 0 0.21004 5.3785 1.49345 3.57207zm7.82428-33.1532s-9.09025-18.3378-26.7995-20.299c0 0-1.29727 0.17467 1.46789 0.80137 0 0 14.3138 3.45954 24.1928 19.1814 0 0 0.82845 1.94823 1.13885 0.31623zm-8.30266-2.69801 2.12812 2.09939c2.12811 2.10058 2.1176 0.798 2.1176 0.798l-5.07895-5.33531c-0.96609 0.98659 0.83323 2.43792 0.83323 2.43792zm-33.4279-17.143c-2.90758 1.65551-0.62772 2.44968-0.62772 2.44968l5.32984-3.14308c-1.14124-0.47938-4.70212 0.6934-4.70212 0.6934zm46.6262 22.8929s1.39668-7.34544-0.42701-11.5689c0 0-0.66166-1.45973-1.44805 1.48084 0 0-1.90398 4.74364 0.74099 10.2603 0 0 0.67098 2.43912 1.13407-0.17227zm-8.25248-15.5719c-1.43396 3.27096 0.20072 4.56082 0.20072 4.56082 0.98592 1.13271 2.79073 3.3974 2.79073 3.3974 2.11545 0.63366 0.59524-6.19737 0.59524-6.19737-0.83419-2.43793-1.02344-5.53326-1.02344-5.53326-0.50276-1.78771-2.56325 3.77241-2.56325 3.77241zm-5.37644-2.23542 2.45835 2.74863s1.15271 1.78292 1.59835-2.78486c0 0 1.71999-7.51291-0.41769-10.5883 0 0-2.89587 2.95809-3.02753 6.3814 0 0 0.0244 2.77071-0.61148 4.24315zm-2.94151-2.25509s4.3499-3.78873 1.20647-10.4429l-1.65905-4.05817s-1.31615-1.94606-1.77829 0.8304c0 0-0.54123 3.31798-0.59738 6.0347 0 0 0.0456 6.85215 2.82825 7.636zm-4.73462-2.89259s1.38951-8.16072-4.47583-10.716c0 0-1.63229-0.96523-0.96824 0.4969 0 0 1.15391 2.10873 1.00695 3.73953 0 0 1.52022 6.83223 4.43712 6.47954zm-5.21085-2.07227s0.24851-8.6413-7.70647-8.73271c0 0-0.64398 0.49329 0.0177 1.95542 0 0 2.33338 6.82527 6.5583 7.44021 0 0 0.99978 0.26728 1.13049-0.66292zm-9.1053-1.71286s-1.81318-3.07877-5.86296-2.22822c0 0-0.64541 0.49425 9e-3 1.1411 0 0 1.45953 1.38463 4.39746 1.58857 0 0 1.87626 0.1334 1.45618-0.50145z" fill="#008f33"/>
  <path id="brown" d="m509.184 361.662-1.78641 0.0163c-1.78498 0.0154-1.61245 1.15526-1.61245 1.15526l0.0177 2.11689c0.8294 1.94943 0.028 3.09629 0.028 3.09629l0.0292 3.42331c0.0303 3.42332 0.68125 3.57903 0.68125 3.57903l1.47602 1.61784s0.0291-0.0305 1.80146 1.77716c1.37327 1.39999 1.79096 0.63509 1.79096 0.63509 1.28341-1.64015 0.59977-5.54596 0.59977-5.54596-0.33955-1.79012-0.0688-7.82242-0.0688-7.82242l-0.0174-1.95519c-0.0165-1.95662-1.80147-1.94006-1.80147-1.94006zm1.28222-1.80403s1.86097-0.50625 1.43755-2.62075l-0.17516-1.46573s-0.22151-6.84278 0.0922-7.98628c0 0 0.38161-2.85612-1.64854-2.91947l-2.43517 0.0223s-1.95535-0.79777-1.93098 1.80883c0 0-0.0676 1.6296-0.14002 2.7731 0 0-0.47002 1.79707-0.10729 6.0299 0 0-0.28818 4.24076 1.33598 4.22684 0 0 2.59599 0.0585 3.57139 0.13124zm-4.73007-26.7392c-0.31136 1.18789-0.16105 5.91978-0.16105 5.91978l-0.14696 1.79371c-0.14576 1.79587 0.98592 1.29682 0.98592 1.29682 0.97087-0.33614 1.46311 0.31287 1.46311 0.31287 2.76636 0.62669 3.08034-0.51801 3.08034-0.51801 1.43515-2.94633 0.10275-6.84518 0.10275-6.84518-0.34194-1.95279-0.19952-4.2362-0.19952-4.2362s-0.076 0.39709 0.0722-0.89733c0.0748-0.65261-0.81794-0.80737-0.81794-0.80737-0.4153 0.30831-1.05473-0.0736-1.05473-0.0736-0.65211-0.15692-1.46192 0.0139-1.46192 0.0139-2.68225-0.38293-1.86216 4.04065-1.86216 4.04065zm-0.7128-19.9897 0.18663 2.7695c-0.14338 2.20015-0.26715 6.52176-0.26715 6.52176-0.12259 4.56442 2.63684 4.5397 2.63684 4.5397l2.27173-0.0211c1.62297-0.0139 1.25068-5.38905 1.25068-5.38905-0.3429-2.1157-0.39069-7.65591-0.39069-7.65591-0.98018-0.80712-5.68804-0.76489-5.68804-0.76489zm0.51566-15.1621c-1.95081-0.30927-1.12475 1.31217-1.12475 1.31217s0.0303 0.28816 0.0946 1.6308c0.10036 2.03724 0.12951 5.3773 0.12951 5.3773-0.53573 5.93969 3.45574 5.34803 3.45574 5.34803 3.08393-0.0269 2.73267-2.95929 2.73267-2.95929-0.51328-3.09053-0.0688-7.82218-0.0688-7.82218 0.15388-0.97939 0.30801-1.95663 0.30801-1.95663-0.82152-2.35346-3.4187-1.11159-3.4187-1.11159zm1.11902-20.3834c-0.48555 0.16771-1.78761-0.30927-1.78761-0.30927-0.73143-0.0761-0.62988 2.28701-0.62988 2.28701l0.0887 10.1032 0.19595 3.7465c0.19474 3.7477 3.91572 2.24814 3.91572 2.24814 1.13407-0.17323 1.76299-2.46024 1.76299-2.46024l-0.28483-14.0138c0.14242-2.28437-3.26099-1.60153-3.26099-1.60153zm0.66142-17.1194c-1.13526 0.0914-1.78402 0.17802-1.78402 0.17802-2.03708-0.79536-1.59023 3.60014-1.59023 3.60014 0.33262 1.13871-0.11303 5.70649-0.11303 5.70649-0.44588 4.73068 1.66718 5.03755 1.66718 5.03755 1.37804-0.0936 1.95081 0.30807 1.95081 0.30807 2.60196 0.6291 2.25548-1.81218 2.25548-1.81218l-0.0877-10.1056c0.28937-3.91181-2.29849-2.9125-2.29849-2.9125zm1.13073-19.0785c-1.13407 0.25433-1.94866-0.0643-1.94866-0.0643-1.38474-0.64085-1.78283 0.26008-1.78283 0.26008 0.23107 2.20136-0.12235 4.56298-0.12235 4.56298 0.357 3.7465-0.42581 7.0129-0.42581 7.0129-0.93359 4.57233 1.65905 4.05936 1.65905 4.05936l0.56823-0.0845 1.05713 0.31646c2.43732 0.30328 1.76395-2.38057 1.76395-2.38057-0.51566-3.41636 0.22294-11.7352 0.22294-11.7352 0.52976-2.23422-0.99165-1.94727-0.99165-1.94727zm29.0383 16.856-1.46311-0.47554c-1.94843 0.0175-0.30323 2.60899-0.30323 2.60899l1.97877 3.40556 2.74174-1.9799c-0.81435-0.15571-2.95417-3.55911-2.95417-3.55911zm-2.80722 12.901c-1.61246 1.47965 0.0303 3.7477 0.0303 3.7477l0.98712 1.13175c0.98234 1.1315 2.92383 0.46258 2.92383 0.46258 1.93695-1.32129-0.51088-2.7659-0.51088-2.7659-0.48556 5e-3 -2.12836-2.09939-2.12836-2.09939zm2.06049-5.56012c-1.29513 0.17347-0.13071 3.42307-0.13071 3.42307l1.31161 1.61809 1.3066 0.96643c1.30683 0.96524 1.62655 0.14996 1.62655 0.14996-0.17037-0.65141 0.79572-1.47509 0.79572-1.47509 0.96847-0.98635-0.18209-2.11689-0.18209-2.11689l-2.28917-2.26206c-1.63109-0.7992-2.43851-0.30351-2.43851-0.30351zm-6.01588-1.25243s2.931 0.95252 3.73364-0.0317c0 0-7e-3 -5.62443-3.77092-4.04065-0.9496 0.39852-1.59621 2.94657 0.0373 4.07232zm0.78878 15.8027 0.65808 0.97243c0.65569 0.97363 1.1551 2.27285 1.1551 2.27285l1.14578 1.13055c1.46789 0.80136 2.4268-0.99931 2.4268-0.99931 1.91354-3.76545-3.94822-5.99487-3.94822-5.99487-2.92861-0.46379-1.43754 2.61835-1.43754 2.61835zm-5.03808-0.7697c-0.31733 1.14591 0.66046 1.62385 0.66046 1.62385-0.63466 1.47268 1.48653 2.76014 1.48653 2.76014 2.11402 0.46859 2.09538-1.64951 2.09538-1.64951-0.69082-4.72133-2.9635-4.86313-2.9635-4.86313-0.8122-0.15691-1.27887 2.12865-1.27887 2.12865zm-6.11147-12.0058c-0.8564 2.43096 0.6815 3.41635 0.6815 3.41635l2.4151-2.14041c2.09561-1.32153 1.43276-3.27215 1.43276-3.27215-0.5018-1.46213-1.79669-0.96188-1.79669-0.96188-2.58571 1.16462-2.73267 2.95809-2.73267 2.95809zm8.62477 2.69464c-1.7618 2.62291 0.85163 4.71774 0.85163 4.71774 1.46072-0.0118 1.60314-2.45784 1.60314-2.45784 0.0421-0.74402 0.14934-1.47029 0.14934-1.47029 0.79118-2.12289-0.99404-2.27165-0.99404-2.27165-1.13885-0.31503-1.61007 1.48204-1.61007 1.48204zm-7.74279 5.28349c0.67456 2.76375 3.26004 1.43766 3.26004 1.43766 1.33479-0.46763 0.95437-1.96479 0.95437-1.96479 2.26122-1.16101 0.6208-3.10228 0.6208-3.10228-0.77707-1.64592-2.91929 0.18858-2.91929 0.18858-1.44901 0.99115-1.91592 3.44083-1.91592 3.44083zm12.0083-18.8498c1.45164-0.66437-0.0139-1.46669-0.0139-1.46669-1.29752 0.33734-1.95321-0.79801-1.95321-0.79801-1.31376-1.29202-1.78522 0.17923-1.78522 0.17923-0.46189 3.09989 3.75228 2.08547 3.75228 2.08547zm-10.8391 4.00898c0.0141 1.6284 2.2636-0.83544 2.2636-0.83544-9e-3 -0.97819 1.11758-1.96574 1.11758-1.96574-0.49463-0.81072-0.97756-0.64445-0.97756-0.64445-2.57854-0.11109-2.40362 3.44563-2.40362 3.44563zm5.0615 3.86478c1.97184-0.1382 0.89822-4.39791-0.20072-4.39791-1.10157 0-2.73506 4.60425 0.20072 4.39791zm-1.75487 4.6124c0.33358 1.00171 3.84093-1.1363 3.32049-2.42736-0.5202-1.29106-3.65192 1.42566-3.32049 2.42736z" fill="#ac5341"/>
 </g>
</svg>
