<svg version="1.1" id="Layer_1" x="0" y="0" xml:space="preserve" width="1200" height="600" xmlns:xlink="http://www.w3.org/1999/xlink" xmlns="http://www.w3.org/2000/svg"><defs id="defs348"><clipPath clipPathUnits="userSpaceOnUse" id="clipPath3"><path class="st0" id="rect3" stroke-width="1" d="M0 0h1200v600H0z"/></clipPath></defs><style type="text/css" id="style333">.st0{fill:#fcd116}</style><g id="g343"><path class="st0" id="rect335" stroke-width="1" d="M0 0h1200v600H0z"/><path d="M0-100v300l1200 600V500Z" id="path339" clip-path="url(#clipPath3)" stroke-width="1" fill="#ce1126"/><path id="polygon337" d="M600 300V200L200 0H0Z" transform="scale(2)" stroke-width=".5"/><g id="g7" transform="rotate(16.57 615.5352 302.2615)"><path d="m600 154.523-20.5212 93.6185-18.046 102.3442-12.7358 94.9913L600 364.523l51.303 80.954-12.7357-94.9913-18.046-102.3442z" id="path4" fill="#fcd116" fill-opacity="1" stroke="none" stroke-width="1" stroke-linecap="butt" stroke-linejoin="miter" stroke-opacity="1"/><use x="0" y="0" xlink:href="#path4" id="use6" transform="rotate(80 600 304.523)"/><path d="m503.5818 189.6164 44.4567 84.9066 90.5288 75.9627 91.3365 29.0374-70.8153-64.5812-7.127-40.4189 44.4567-84.9066-75.897 58.525h-41.0424z" id="path7" fill="#fcd116" fill-opacity="1" stroke="none" stroke-width="1" stroke-linecap="butt" stroke-linejoin="miter" stroke-opacity="1"/></g></g></svg>